<?xml version="1.0" standalone="no"?>
<!DOCTYPE svg PUBLIC "-//W3C//DTD SVG 20010904//EN"
 "http://www.w3.org/TR/2001/REC-SVG-20010904/DTD/svg10.dtd">
<svg version="1.0" xmlns="http://www.w3.org/2000/svg"
 width="400.000000pt" height="400.000000pt" viewBox="0 0 400.000000 400.000000"
 preserveAspectRatio="xMidYMid meet">

<g transform="translate(0.000000,400.000000) scale(0.100000,-0.100000)"
fill="#000000" stroke="none">
<path d="M1780 3989 c-438 -51 -850 -245 -1169 -553 -618 -597 -786 -1520
-416 -2293 103 -216 205 -361 375 -537 532 -549 1322 -743 2055 -505 419 137
801 430 1048 804 381 578 431 1326 132 1952 -302 631 -902 1056 -1597 1132
-112 13 -319 12 -428 0z m301 -1891 c669 -863 842 -1088 838 -1092 -2 -1 -47
-37 -99 -80 l-94 -79 -34 39 c-31 36 -543 694 -1018 1307 l-199 258 -3 -626
-2 -625 -135 0 -135 0 0 800 0 800 168 0 168 0 545 -702z m739 407 l0 -296
-130 3 -130 2 0 293 0 293 130 0 130 0 0 -295z"/>
</g>
</svg>
